{
	"asset":{
		"generator":"Khronos glTF Blender I/O v5.0.21",
		"version":"2.0"
	},
	"scene":0,
	"scenes":[
		{
			"name":"Scene",
			"nodes":[
				0
			]
		}
	],
	"nodes":[
		{
			"mesh":0,
			"name":"B\u00e9zierCurve"
		}
	],
	"meshes":[
		{
			"name":"B\u00e9zierCurve.001",
			"primitives":[
				{
					"attributes":{
						"POSITION":0,
						"NORMAL":1,
						"TEXCOORD_0":2
					},
					"indices":3
				}
			]
		}
	],
	"accessors":[
		{
			"bufferView":0,
			"componentType":5126,
			"count":6366,
			"max":[
				2,
				0.31423425674438477,
				0.31423425674438477
			],
			"min":[
				-2,
				-0.31423425674438477,
				-0.31423425674438477
			],
			"type":"VEC3"
		},
		{
			"bufferView":1,
			"componentType":5126,
			"count":6366,
			"type":"VEC3"
		},
		{
			"bufferView":2,
			"componentType":5126,
			"count":6366,
			"type":"VEC2"
		},
		{
			"bufferView":3,
			"componentType":5123,
			"count":36096,
			"type":"SCALAR"
		}
	],
	"bufferViews":[
		{
			"buffer":0,
			"byteLength":76392,
			"byteOffset":0,
			"target":34962
		},
		{
			"buffer":0,
			"byteLength":76392,
			"byteOffset":76392,
			"target":34962
		},
		{
			"buffer":0,
			"byteLength":50928,
			"byteOffset":152784,
			"target":34962
		},
		{
			"buffer":0,
			"byteLength":72192,
			"byteOffset":203712,
			"target":34963
		}
	],
	"buffers":[
		{
			"byteLength":275904,
			"uri":"p.bin"
		}
	]
}
