{
	"asset":{
		"generator":"Khronos glTF Blender I/O v4.5.47",
		"version":"2.0"
	},
	"scene":0,
	"scenes":[
		{
			"name":"Scene",
			"nodes":[
				0
			]
		}
	],
	"nodes":[
		{
			"mesh":0,
			"name":"Sphere"
		}
	],
	"meshes":[
		{
			"name":"Sphere",
			"primitives":[
				{
					"attributes":{
						"POSITION":0,
						"NORMAL":1,
						"TEXCOORD_0":2
					},
					"indices":3
				}
			]
		}
	],
	"accessors":[
		{
			"bufferView":0,
			"componentType":5126,
			"count":28560,
			"max":[
				0.999998927116394,
				1,
				0.9999980330467224
			],
			"min":[
				-0.9999973773956299,
				-1,
				-1
			],
			"type":"VEC3"
		},
		{
			"bufferView":1,
			"componentType":5126,
			"count":28560,
			"type":"VEC3"
		},
		{
			"bufferView":2,
			"componentType":5126,
			"count":28560,
			"type":"VEC2"
		},
		{
			"bufferView":3,
			"componentType":5123,
			"count":42480,
			"type":"SCALAR"
		}
	],
	"bufferViews":[
		{
			"buffer":0,
			"byteLength":342720,
			"byteOffset":0,
			"target":34962
		},
		{
			"buffer":0,
			"byteLength":342720,
			"byteOffset":342720,
			"target":34962
		},
		{
			"buffer":0,
			"byteLength":228480,
			"byteOffset":685440,
			"target":34962
		},
		{
			"buffer":0,
			"byteLength":84960,
			"byteOffset":913920,
			"target":34963
		}
	],
	"buffers":[
		{
			"byteLength":998880,
			"uri":"s.bin"
		}
	]
}
