{
	"asset":{
		"generator":"Khronos glTF Blender I/O v5.0.21",
		"version":"2.0"
	},
	"scene":0,
	"scenes":[
		{
			"name":"Scene",
			"nodes":[
				0
			]
		}
	],
	"nodes":[
		{
			"mesh":0,
			"name":"Sphere"
		}
	],
	"meshes":[
		{
			"name":"Sphere",
			"primitives":[
				{
					"attributes":{
						"POSITION":0,
						"NORMAL":1,
						"TEXCOORD_0":2
					},
					"indices":3
				}
			]
		}
	],
	"accessors":[
		{
			"bufferView":0,
			"componentType":5126,
			"count":17749,
			"max":[
				0.9999997019767761,
				1,
				0.9999993443489075
			],
			"min":[
				-0.9999990463256836,
				-1,
				-1
			],
			"type":"VEC3"
		},
		{
			"bufferView":1,
			"componentType":5126,
			"count":17749,
			"type":"VEC3"
		},
		{
			"bufferView":2,
			"componentType":5126,
			"count":17749,
			"type":"VEC2"
		},
		{
			"bufferView":3,
			"componentType":5123,
			"count":103680,
			"type":"SCALAR"
		}
	],
	"bufferViews":[
		{
			"buffer":0,
			"byteLength":212988,
			"byteOffset":0,
			"target":34962
		},
		{
			"buffer":0,
			"byteLength":212988,
			"byteOffset":212988,
			"target":34962
		},
		{
			"buffer":0,
			"byteLength":141992,
			"byteOffset":425976,
			"target":34962
		},
		{
			"buffer":0,
			"byteLength":207360,
			"byteOffset":567968,
			"target":34963
		}
	],
	"buffers":[
		{
			"byteLength":775328,
			"uri":"s.bin"
		}
	]
}
